<mxfile host="Electron" modified="2023-11-21T18:49:15.467Z" agent="Mozilla/5.0 (Windows NT 10.0; Win64; x64) AppleWebKit/537.36 (KHTML, like Gecko) draw.io/22.0.2 Chrome/114.0.5735.289 Electron/25.8.4 Safari/537.36" etag="A2W-D7NJ6DjMYAtSdTOb" version="22.0.2" type="device">
  <diagram name="Page-1" id="87T8C4XIXQTgwOhHmZBL">
    <mxGraphModel dx="453" dy="674" grid="1" gridSize="10" guides="1" tooltips="1" connect="1" arrows="1" fold="1" page="1" pageScale="1" pageWidth="827" pageHeight="1169" math="0" shadow="0">
      <root>
        <mxCell id="0" />
        <mxCell id="1" parent="0" />
        <mxCell id="oHLaw-w_JpOz_HjmWtBH-6" value="" style="ellipse;whiteSpace=wrap;html=1;aspect=fixed;fillColor=#dae8fc;strokeColor=#6c8ebf;" vertex="1" parent="1">
          <mxGeometry x="270" y="290" width="280" height="280" as="geometry" />
        </mxCell>
        <mxCell id="oHLaw-w_JpOz_HjmWtBH-5" value="" style="ellipse;whiteSpace=wrap;html=1;aspect=fixed;" vertex="1" parent="1">
          <mxGeometry x="290" y="310" width="240" height="240" as="geometry" />
        </mxCell>
        <mxCell id="oHLaw-w_JpOz_HjmWtBH-4" value="" style="ellipse;whiteSpace=wrap;html=1;aspect=fixed;fillColor=#dae8fc;strokeColor=#6c8ebf;" vertex="1" parent="1">
          <mxGeometry x="310" y="330" width="200" height="200" as="geometry" />
        </mxCell>
        <mxCell id="oHLaw-w_JpOz_HjmWtBH-3" value="" style="ellipse;whiteSpace=wrap;html=1;aspect=fixed;" vertex="1" parent="1">
          <mxGeometry x="330" y="350" width="160" height="160" as="geometry" />
        </mxCell>
        <mxCell id="oHLaw-w_JpOz_HjmWtBH-2" value="" style="ellipse;whiteSpace=wrap;html=1;aspect=fixed;fillColor=#dae8fc;strokeColor=#6c8ebf;" vertex="1" parent="1">
          <mxGeometry x="350" y="370" width="120" height="120" as="geometry" />
        </mxCell>
        <mxCell id="oHLaw-w_JpOz_HjmWtBH-1" value="" style="ellipse;whiteSpace=wrap;html=1;aspect=fixed;" vertex="1" parent="1">
          <mxGeometry x="370" y="390" width="80" height="80" as="geometry" />
        </mxCell>
        <mxCell id="oHLaw-w_JpOz_HjmWtBH-7" value="" style="endArrow=none;html=1;rounded=0;" edge="1" parent="1">
          <mxGeometry width="50" height="50" relative="1" as="geometry">
            <mxPoint x="420" y="430" as="sourcePoint" />
            <mxPoint x="513" y="257" as="targetPoint" />
          </mxGeometry>
        </mxCell>
        <mxCell id="oHLaw-w_JpOz_HjmWtBH-8" value="" style="endArrow=none;html=1;rounded=0;" edge="1" parent="1">
          <mxGeometry width="50" height="50" relative="1" as="geometry">
            <mxPoint x="450" y="423" as="sourcePoint" />
            <mxPoint x="530" y="280" as="targetPoint" />
          </mxGeometry>
        </mxCell>
      </root>
    </mxGraphModel>
  </diagram>
</mxfile>
